<svg xmlns="http://www.w3.org/2000/svg" width="34" height="20" viewBox="0 0 34 20">
    <g fill="#A4A4A4" fill-rule="evenodd" stroke="#A4A4A4" stroke-width=".3">
        <path d="M32.851 9.777C28.89 3.787 23.111.327 17 .327c-6.11 0-11.89 3.46-15.851 9.45L1 10l.149.223c3.962 5.99 9.74 9.45 15.851 9.45 6.11 0 11.89-3.46 15.851-9.45L33 10l-.149-.223zM17 18.929c-5.778 0-11.26-3.237-15.111-8.929C5.74 4.308 11.222 1.071 17 1.071c5.778 0 11.26 3.237 15.111 8.929-3.851 5.692-9.333 8.929-15.111 8.929z"/>
        <path d="M17 4.047c-3.26 0-5.926 2.679-5.926 5.953 0 3.274 2.666 5.953 5.926 5.953 3.26 0 5.926-2.679 5.926-5.953 0-3.274-2.666-5.953-5.926-5.953zm0 11.16c-2.851 0-5.185-2.343-5.185-5.207S14.15 4.792 17 4.792c2.851 0 5.185 2.344 5.185 5.208 0 2.864-2.334 5.208-5.185 5.208z"/>
    </g>
</svg>
